<svg width="60" height="60" viewBox="0 0 60 60" fill="none" xmlns="http://www.w3.org/2000/svg" id="layer">
<path d="M55.7812 5.85938H54.6121C53.8043 5.86027 53.0298 6.18157 52.4586 6.75278C51.8874 7.32398 51.5661 8.09844 51.5652 8.90625V13.0725H39.6778C39.1831 13.0691 38.6944 13.1807 38.2503 13.3986C37.8062 13.6164 37.4188 13.9346 37.1188 14.3279H23.659V13.6889C23.6574 12.882 23.3359 12.1087 22.7649 11.5386C22.1939 10.9685 21.4201 10.6482 20.6133 10.6479H11.0878C10.5479 10.6482 10.0177 10.7919 9.5516 11.0643C9.08546 11.3368 8.70005 11.7281 8.4348 12.1984V8.90625C8.4339 8.09844 8.11261 7.32398 7.5414 6.75278C6.9702 6.18157 6.19574 5.86027 5.38793 5.85938H4.21875C3.41094 5.86027 2.63648 6.18157 2.06528 6.75278C1.49407 7.32398 1.17277 8.09844 1.17188 8.90625V53.2031C1.17215 53.4517 1.27102 53.69 1.44677 53.8657C1.62253 54.0415 1.86082 54.1403 2.10938 54.1406H7.4973C7.74586 54.1403 7.98415 54.0415 8.15991 53.8657C8.33566 53.69 8.43453 53.4517 8.4348 53.2031V50.3438H51.5652V53.2031C51.5655 53.4517 51.6643 53.69 51.8401 53.8657C52.0158 54.0415 52.2541 54.1403 52.5027 54.1406H57.8906C58.1392 54.1403 58.3775 54.0415 58.5532 53.8657C58.729 53.69 58.8278 53.4517 58.8281 53.2031V8.90625C58.8272 8.09844 58.5059 7.32398 57.9347 6.75278C57.3635 6.18157 56.5891 5.86027 55.7812 5.85938ZM8.4348 43.3569V40.9049C8.44223 40.8648 8.44615 40.8241 8.44652 40.7834C8.44652 39.8666 9.13465 39.1486 10.0131 39.1486H22.7971C22.9122 39.1794 23.0335 39.1794 23.1486 39.1486H36.5578C36.5413 39.2744 36.533 39.4011 36.5329 39.5279V43.3569H8.4348ZM22.7798 15.7342C22.895 15.7649 23.0162 15.7649 23.1314 15.7342H36.5415C36.525 15.8599 36.5166 15.9867 36.5164 16.1135V19.9424H8.4348V17.2596C8.4873 16.3962 9.15328 15.7342 9.99633 15.7342H22.7798ZM37.1353 37.742H23.6754V37.103C23.6738 36.2961 23.3523 35.5228 22.7814 34.9527C22.2104 34.3826 21.4366 34.0623 20.6298 34.062H11.1042C10.5587 34.0622 10.0233 34.2089 9.55377 34.4865C9.08424 34.7642 8.69782 35.1628 8.4348 35.6407V27.5132H51.5652V36.4868H39.6941C39.1994 36.4834 38.7107 36.595 38.2666 36.8129C37.8225 37.0308 37.4351 37.349 37.1351 37.7423L37.1353 37.742ZM10.0129 37.742C9.82912 37.7421 9.64579 37.759 9.46512 37.7924V37.103C9.4662 36.6689 9.63941 36.2531 9.94674 35.9466C10.2541 35.6401 10.6704 35.4681 11.1045 35.4682H20.63C21.0641 35.4681 21.4804 35.6402 21.7877 35.9466C22.095 36.2531 22.2683 36.669 22.2694 37.103V37.742H10.0129ZM51.5654 26.1066H8.4348V21.3487H36.5247C36.6318 22.9329 38.005 24.1905 39.6784 24.1905H51.5652L51.5654 26.1066ZM37.9391 39.5279C37.9386 39.2672 38.0053 39.0107 38.1328 38.7833C38.2894 38.5086 38.5169 38.2809 38.7916 38.1242C39.0663 37.9676 39.378 37.8876 39.6942 37.8927H51.5653V46.1982H39.6942C38.7264 46.1982 37.9391 45.4649 37.9391 44.5634V39.5279ZM39.6778 14.4788H51.5652V22.7842H39.6778C38.7101 22.7842 37.9227 22.0508 37.9227 21.1494V16.1133C37.9222 15.8525 37.989 15.596 38.1165 15.3686C38.2731 15.0939 38.5007 14.8664 38.7753 14.7099C39.05 14.5534 39.3617 14.4735 39.6778 14.4788ZM11.0878 12.0541H20.6133C21.0473 12.054 21.4636 12.2261 21.7709 12.5326C22.0782 12.839 22.2514 13.2549 22.2525 13.6889V14.3279H9.99609C9.81237 14.3281 9.62904 14.3449 9.44836 14.3782V13.6889C9.44945 13.2549 9.62267 12.839 9.93003 12.5325C10.2374 12.226 10.6538 12.054 11.0878 12.0541ZM7.02855 52.7344H2.57812V8.90625C2.57859 8.47127 2.75159 8.05424 3.05917 7.74667C3.36674 7.43909 3.78377 7.26609 4.21875 7.26562H5.38793C5.82291 7.26609 6.23994 7.43909 6.54751 7.74667C6.85509 8.05424 7.02809 8.47127 7.02855 8.90625V17.1914C7.02539 17.25 7.0234 17.3086 7.0234 17.3686C7.02356 17.396 7.02528 17.4234 7.02855 17.4506V20.6367V20.6453C7.02855 20.6453 7.02855 20.6509 7.02855 20.6537V52.7344ZM8.4348 48.9375V44.7632H36.5404C36.6476 46.3472 38.0207 47.6048 39.6942 47.6048H51.5653V48.9375H8.4348ZM57.4219 52.7344H52.9714V8.90625C52.9719 8.47127 53.1449 8.05424 53.4525 7.74667C53.7601 7.43909 54.1771 7.26609 54.6121 7.26562H55.7812C56.2162 7.26609 56.6333 7.43909 56.9408 7.74667C57.2484 8.05424 57.4214 8.47127 57.4219 8.90625V52.7344Z" fill="#3A5E7E"/>
</svg>
