<svg width="60" height="60" viewBox="0 0 60 60" fill="none" xmlns="http://www.w3.org/2000/svg" id="layer">
<path d="M3 60H56C58.2091 60 60 58.2091 60 56V40C60 37.7909 58.2091 36 56 36H44V7C43.9956 3.13583 40.8642 0.00440864 37 0H3C1.34315 0 0 1.34315 0 3V57C0 58.6569 1.34315 60 3 60ZM26 48H10C9.44771 48 9 47.5523 9 47V45C9 44.4477 9.44771 44 10 44H26V48ZM58 40V56C58 57.1046 57.1046 58 56 58H30C28.8954 58 28 57.1046 28 56V40C28 38.8954 28.8954 38 30 38H56C57.1046 38 58 38.8954 58 40ZM2 3C2 2.44772 2.44772 2 3 2H37C39.7601 2.00331 41.9967 4.23995 42 7V36H30C27.7909 36 26 37.7909 26 40V42H10C8.34315 42 7 43.3431 7 45V47C7 48.6569 8.34315 50 10 50H26V56C26.0041 56.7043 26.1961 57.3947 26.556 58H3C2.44772 58 2 57.5523 2 57V3Z" fill="#3A5E7E"/>
<path d="M8.41408 27.317C8.43632 27.3808 8.46514 27.4422 8.50008 27.5C10.9924 32.6917 16.2411 35.9942 22.0001 35.9942C27.759 35.9942 33.0077 32.6917 35.5001 27.5C35.5347 27.4437 35.5635 27.3841 35.5861 27.322C37.4716 23.3217 37.4716 18.6883 35.5861 14.688C35.5635 14.6259 35.5347 14.5663 35.5001 14.51C33.0077 9.31828 27.759 6.01578 22.0001 6.01578C16.2411 6.01578 10.9924 9.31828 8.50008 14.51C8.46545 14.5663 8.43663 14.6259 8.41408 14.688C6.53011 18.6869 6.53011 23.3181 8.41408 27.317ZM34.0001 26H29.5521C29.7908 24.6788 29.9319 23.3419 29.9741 22H34.9491C34.8486 23.3755 34.5282 24.726 34.0001 26ZM9.05108 22H14.0261C14.0683 23.3419 14.2093 24.6788 14.4481 26H10.0001C9.47196 24.726 9.15155 23.3755 9.05108 22ZM16.0251 22H21.0001V26H16.4731C16.2174 24.6807 16.0676 23.3431 16.0251 22ZM21.0001 28V33.79C19.4301 33.16 17.9161 31.09 16.9731 28H21.0001ZM23.0001 33.79V28H27.0271C26.0841 31.088 24.5701 33.16 23.0001 33.79ZM23.0001 26V22H27.9751C27.9326 23.3431 27.7828 24.6807 27.5271 26H23.0001ZM34.9491 20H29.9741C29.9319 18.6581 29.7908 17.3211 29.5521 16H34.0001C34.5282 17.274 34.8486 18.6245 34.9491 20ZM27.9751 20H23.0001V16H27.5271C27.7828 17.3193 27.9326 18.6569 27.9751 20ZM23.0001 14V8.20999C24.5701 8.83999 26.0841 10.91 27.0271 14H23.0001ZM21.0001 8.20999V14H16.9731C17.9161 10.912 19.4301 8.83999 21.0001 8.20999ZM21.0001 16V20H16.0251C16.0676 18.6569 16.2174 17.3193 16.4731 16H21.0001ZM14.0261 20H9.05108C9.15155 18.6245 9.47196 17.274 10.0001 16H14.4451C14.2073 17.3212 14.0673 18.6582 14.0261 20ZM11.0631 28H14.9001C15.3662 29.8147 16.1492 31.5328 17.2131 33.075C14.6841 32.066 12.5338 30.2915 11.0631 28ZM26.7871 33.075C27.8509 31.5328 28.634 29.8147 29.1001 28H32.9371C31.4664 30.2915 29.3161 32.066 26.7871 33.075ZM32.9371 14H29.1001C28.634 12.1853 27.8509 10.4672 26.7871 8.92499C29.3161 9.93402 31.4664 11.7085 32.9371 14ZM17.2131 8.92499C16.1492 10.4672 15.3662 12.1853 14.9001 14H11.0631C12.5338 11.7085 14.6841 9.93402 17.2131 8.92499Z" fill="#3A5E7E"/>
<path d="M37.793 46.855C38.9576 45.719 39.3182 43.9908 38.705 42.4839C38.0917 40.977 36.6269 39.9916 35 39.9916C33.3731 39.9916 31.9083 40.977 31.295 42.4839C30.6818 43.9908 31.0424 45.719 32.207 46.855C30.8279 47.7838 30.0007 49.3373 30 51V54C30 55.1046 30.8954 56 32 56H38C39.1046 56 40 55.1046 40 54V51C39.9993 49.3373 39.1721 47.7838 37.793 46.855ZM33 44C33 42.8954 33.8954 42 35 42C36.1046 42 37 42.8954 37 44C37 45.1046 36.1046 46 35 46C33.8954 46 33 45.1046 33 44ZM32 54V51C32 49.3431 33.3431 48 35 48C36.6568 48 38 49.3431 38 51V54H32Z" fill="#3A5E7E"/>
<path d="M42 42C42 42.5523 42.4477 43 43 43H54C54.5523 43 55 42.5523 55 42C55 41.4477 54.5523 41 54 41H43C42.4477 41 42 41.4477 42 42Z" fill="#3A5E7E"/>
<path d="M54 45H43C42.4477 45 42 45.4477 42 46C42 46.5523 42.4477 47 43 47H54C54.5523 47 55 46.5523 55 46C55 45.4477 54.5523 45 54 45Z" fill="#3A5E7E"/>
<path d="M54 49H43C42.4477 49 42 49.4477 42 50C42 50.5523 42.4477 51 43 51H54C54.5523 51 55 50.5523 55 50C55 49.4477 54.5523 49 54 49Z" fill="#3A5E7E"/>
<path d="M48 53H43C42.4477 53 42 53.4477 42 54C42 54.5523 42.4477 55 43 55H48C48.5523 55 49 54.5523 49 54C49 53.4477 48.5523 53 48 53Z" fill="#3A5E7E"/>
</svg>
