<svg width="60" height="60" viewBox="0 0 60 60" fill="none" xmlns="http://www.w3.org/2000/svg" id="layer">
<g clip-path="url(#clip0)">
<path d="M30 0C13.4316 0 0 13.4316 0 30C0 46.5684 13.4316 60 30 60C30.9038 60 31.8042 59.9595 32.7002 59.8789C33.5332 59.8042 34.3589 59.6899 35.1782 59.5469L35.4932 59.4912C50.7261 56.6484 61.2881 42.6724 59.8633 27.2417C58.4385 11.811 45.4961 0.00488281 30 0V0ZM27.5898 57.894H27.519C26.7412 57.8252 25.9692 57.7212 25.2041 57.5879C25.1602 57.5801 25.1162 57.5752 25.0732 57.5669C24.3252 57.4331 23.585 57.2671 22.8521 57.0732L22.6748 57.0278C21.96 56.834 21.2529 56.6089 20.5562 56.3589C20.4839 56.333 20.4111 56.3101 20.3389 56.2832C19.6558 56.0322 18.9849 55.751 18.3242 55.4468C18.2422 55.4102 18.1602 55.375 18.0781 55.3359C17.4302 55.0361 16.7949 54.6982 16.1719 54.3428C16.084 54.293 15.9951 54.2432 15.9072 54.1938C15.2939 53.8359 14.6948 53.4521 14.1069 53.0469C14.0181 52.9849 13.9282 52.9248 13.8398 52.8628C13.2622 52.4531 12.6992 52.0181 12.1509 51.563L12 51.4312V43C12.0073 36.9277 16.9277 32.0073 23 32H37C43.0723 32.0073 47.9927 36.9277 48 43V51.4321L47.8672 51.543C47.3081 52.0098 46.7344 52.4512 46.145 52.8682C46.0669 52.9229 45.9878 52.9751 45.9102 53.0288C45.3154 53.4419 44.7061 53.8306 44.082 54.1958C44.0039 54.2412 43.9238 54.2842 43.8462 54.3291C43.2139 54.689 42.5708 55.0288 41.915 55.335C41.8398 55.3701 41.7642 55.4028 41.688 55.4351C41.022 55.7422 40.3452 56.0249 39.6572 56.2778C39.5889 56.3032 39.52 56.3252 39.457 56.3491C38.7568 56.6001 38.0469 56.8271 37.3281 57.022L37.1558 57.0649C36.4219 57.2588 35.6812 57.4258 34.9321 57.5601C34.8892 57.5679 34.8462 57.5732 34.8032 57.5801C34.0371 57.7139 33.2642 57.8179 32.4858 57.8872H32.415C31.6152 57.9561 30.8149 57.9932 30.0049 57.9932C29.1948 57.9932 28.3882 57.9629 27.5898 57.894ZM50 49.5781V43C49.9917 35.8237 44.1763 30.0083 37 30H23C15.8237 30.0083 10.0083 35.8237 10 43V49.5771C-0.770508 38.5845 -0.650391 20.96 10.2686 10.1147C21.1875 -0.72998 38.8125 -0.72998 49.7314 10.1147C60.6504 20.96 60.7705 38.5845 50 49.5771V49.5781Z" fill="#3A5E7E"/>
<path d="M30 8C24.4771 8 20 12.4771 20 18C20 23.5229 24.4771 28 30 28C35.5229 28 40 23.5229 40 18C39.9941 12.4795 35.5205 8.00586 30 8ZM30 26C25.5815 26 22 22.4185 22 18C22 13.5815 25.5815 10 30 10C34.4185 10 38 13.5815 38 18C37.9951 22.416 34.416 25.9951 30 26Z" fill="#3A5E7E"/>
</g>
<defs>
<clipPath id="clip0">
<rect width="60" height="60" fill="white"/>
</clipPath>
</defs>
</svg>
