<svg width="60" height="60" viewBox="0 0 60 60" fill="none" xmlns="http://www.w3.org/2000/svg" id="layer">
<g clip-path="url(#clip0)">
<path d="M6.60006 44.8C7.04189 44.4686 7.13143 43.8418 6.80006 43.4C6.46869 42.9582 5.84189 42.8686 5.40006 43.2C4.51874 43.861 4.00006 44.8983 4.00006 46C4.00006 47.1016 4.51874 48.139 5.40006 48.8C5.83602 49.13 6.45683 49.045 6.78806 48.61C7.12544 48.1752 7.04813 47.5496 6.61506 47.21C6.23164 46.9295 6.00379 46.4839 6.00084 46.0088C5.99788 45.5337 6.22016 45.0853 6.60006 44.8Z" fill="#3A5E7E"/>
<path d="M54 38.9993H52.022V37.7703C52.0002 35.6821 50.3826 33.9585 48.3 33.8043L38 33.0683V27.8683C38.026 27.8423 38.047 27.8163 38.074 27.7903C39.6627 26.379 40.5061 24.3101 40.357 22.1903C41.6162 21.3847 42.5158 20.1241 42.868 18.6713C43.139 16.8873 43.168 14.6523 41.781 14.1523C41.5262 14.0518 41.2549 13.9999 40.981 13.9993C40.99 13.6903 40.997 13.3623 41.001 13.0123L41 12.9993V8.38431L43 7.84731V10.2693V10.2763C42.9983 11.3033 43.5117 12.2628 44.367 12.8313C44.8265 13.1378 45.4475 13.0138 45.754 12.5543C46.0605 12.0948 45.9365 11.4738 45.477 11.1673C45.1786 10.9691 44.9995 10.6345 45 10.2763V10.2693V7.22231C45.7 6.81817 46.0879 6.0324 45.9831 5.23093C45.8783 4.42947 45.3014 3.76987 44.521 3.55931L31.515 0.0673103C31.1779 -0.0224367 30.8231 -0.0224367 30.486 0.0673103L17.479 3.55931C16.6057 3.79945 16.0004 4.59355 16.0004 5.49931C16.0004 6.40507 16.6057 7.19918 17.479 7.43931L21 8.38431V12.9993V13.0103C21 13.3663 21.011 13.6923 21.021 13.9943C20.7571 13.9935 20.4955 14.0427 20.25 14.1393C18.836 14.6503 18.861 16.8853 19.138 18.7043C19.4957 20.1424 20.3902 21.389 21.638 22.1883C21.4883 24.3078 22.331 26.3767 23.919 27.7883C23.947 27.8153 23.968 27.8423 23.995 27.8693V33.0693L13.715 33.7993C11.6242 33.9565 10.0061 35.6956 10 37.7923V38.9993H6C2.691 38.9993 0 42.1393 0 45.9993C0 49.8593 2.691 52.9993 6 52.9993H25V57.9993C25 59.1039 25.8954 59.9993 27 59.9993H31C32.1046 59.9993 33 59.1039 33 57.9993V52.9993H54C57.309 52.9993 60 49.8593 60 45.9993C60 42.1393 57.309 38.9993 54 38.9993ZM50.017 37.7803V38.9993H33.417L37.378 35.0293L48.152 35.7993C49.1943 35.8742 50.0051 36.7355 50.017 37.7803ZM36 45.9993C36 48.7563 34.206 50.9993 32 50.9993H30.191C32.6032 48.1024 32.6032 43.8963 30.191 40.9993H32C34.206 40.9993 36 43.2423 36 45.9993ZM29.73 32.9993H32.27C34.29 32.9993 35.187 31.7623 36 30.4993V33.5843L31.011 38.5843L26 33.5843V30.4993C26.813 31.7623 27.71 32.9993 29.73 32.9993ZM30 45.9993C30 48.7563 28.206 50.9993 26 50.9993H10.191C12.6032 48.1024 12.6032 43.8963 10.191 40.9993H26C28.206 40.9993 30 43.2423 30 45.9993ZM30.994 1.99931L44.014 5.49931H44.001L31.006 8.99931L18 5.49131L30.994 1.99931ZM30.485 10.9313C30.653 10.9763 30.8261 10.9991 31 10.9993C31.1733 10.9996 31.3458 10.9767 31.513 10.9313L39 8.92131V12.4863C38.228 12.9513 35.939 13.9993 31.01 13.9993C26.081 13.9993 23.767 12.9433 23 12.4863V8.92131L30.485 10.9313ZM23.65 21.8993C23.7512 21.4631 23.5619 21.0111 23.18 20.7773C23.161 20.7663 23.142 20.7553 23.122 20.7453C22.1504 20.2689 21.4211 19.4094 21.109 18.3733C20.9732 17.5884 20.9658 16.7866 21.087 15.9993C21.2726 16.0277 21.4505 16.0933 21.61 16.1923C21.9343 16.3744 22.3329 16.3613 22.6447 16.1585C22.9565 15.9557 23.1299 15.5966 23.095 15.2263C23.081 15.0753 23.068 14.9163 23.057 14.7473C25.6012 15.6786 28.3028 16.1039 31.01 15.9993C33.7116 16.1048 36.4076 15.6801 38.946 14.7493C38.936 14.9163 38.925 15.0773 38.913 15.2303C38.8839 15.5963 39.0577 15.9489 39.3658 16.1486C39.6739 16.3484 40.0667 16.3633 40.389 16.1873C40.5491 16.0889 40.7279 16.0249 40.914 15.9993C41.0339 16.7728 41.0282 17.5606 40.897 18.3323C40.5913 19.3839 39.8575 20.2585 38.875 20.7423C38.8478 20.7561 38.8214 20.7714 38.796 20.7883L38.771 20.8033C38.3628 21.0501 38.1877 21.5522 38.354 21.9993C38.5568 23.6382 37.9308 25.2705 36.684 26.3533C35.8262 27.2125 35.0766 28.1732 34.452 29.2143C33.6 30.5403 33.258 30.9993 32.27 30.9993H29.73C28.742 30.9993 28.398 30.5403 27.548 29.2123C26.9228 28.1705 26.1726 27.209 25.314 26.3493C24.046 25.2404 23.4206 23.5681 23.65 21.8993ZM12 37.7923C12.0044 36.7453 12.8129 35.8776 13.857 35.7993L24.616 35.0313L28.6 38.9993H12V37.7923ZM2 45.9993C2 43.2423 3.794 40.9993 6 40.9993C8.206 40.9993 10 43.2423 10 45.9993C10 48.7563 8.206 50.9993 6 50.9993C3.794 50.9993 2 48.7563 2 45.9993ZM27 57.9993V52.9993H31V57.9993H27ZM54 50.9993H36.191C38.6032 48.1024 38.6032 43.8963 36.191 40.9993H54C56.206 40.9993 58 43.2423 58 45.9993C58 48.7563 56.206 50.9993 54 50.9993Z" fill="#3A5E7E"/>
</g>
<defs>
<clipPath id="clip0">
<rect width="60" height="60" fill="white"/>
</clipPath>
</defs>
</svg>
